<mxfile host="app.diagrams.net" modified="2020-12-18T02:33:00.413Z" agent="5.0 (Windows NT 10.0; Win64; x64) AppleWebKit/537.36 (KHTML, like Gecko) Chrome/87.0.4280.88 Safari/537.36" etag="AB3WQ99xDzeZmTQQDp6v" version="14.0.1" type="github">
  <diagram name="Page-1" id="80d4a630-b321-0f5e-ff81-c5a36ef4752d">
    <mxGraphModel dx="6710" dy="3730" grid="1" gridSize="9" guides="1" tooltips="1" connect="1" arrows="1" fold="1" page="1" pageScale="1" pageWidth="4681" pageHeight="3300" background="#ffffff" math="0" shadow="0">
      <root>
        <mxCell id="0" />
        <mxCell id="1" parent="0" />
        <mxCell id="kkA5DNoGoVREOgx9TlIq-11" style="edgeStyle=orthogonalEdgeStyle;rounded=0;orthogonalLoop=1;jettySize=auto;html=1;exitX=1;exitY=0.5;exitDx=0;exitDy=0;exitPerimeter=0;fontSize=120;" parent="1" source="kkA5DNoGoVREOgx9TlIq-1" edge="1">
          <mxGeometry relative="1" as="geometry">
            <mxPoint x="3159" y="544.3333333333339" as="targetPoint" />
          </mxGeometry>
        </mxCell>
        <mxCell id="kkA5DNoGoVREOgx9TlIq-13" style="edgeStyle=orthogonalEdgeStyle;rounded=0;orthogonalLoop=1;jettySize=auto;html=1;exitX=1;exitY=0.5;exitDx=0;exitDy=0;exitPerimeter=0;entryX=0;entryY=0.5;entryDx=0;entryDy=0;entryPerimeter=0;fontSize=120;" parent="1" source="kkA5DNoGoVREOgx9TlIq-1" target="kkA5DNoGoVREOgx9TlIq-9" edge="1">
          <mxGeometry relative="1" as="geometry">
            <Array as="points">
              <mxPoint x="2529" y="1606" />
              <mxPoint x="2529" y="2642" />
            </Array>
          </mxGeometry>
        </mxCell>
        <mxCell id="kkA5DNoGoVREOgx9TlIq-15" style="edgeStyle=orthogonalEdgeStyle;rounded=0;orthogonalLoop=1;jettySize=auto;html=1;exitX=1;exitY=0.5;exitDx=0;exitDy=0;exitPerimeter=0;fontSize=120;" parent="1" source="kkA5DNoGoVREOgx9TlIq-1" edge="1">
          <mxGeometry relative="1" as="geometry">
            <mxPoint x="3303" y="1607" as="targetPoint" />
          </mxGeometry>
        </mxCell>
        <mxCell id="kkA5DNoGoVREOgx9TlIq-1" value="" style="fontColor=#0066CC;verticalAlign=top;verticalLabelPosition=bottom;labelPosition=center;align=center;html=1;outlineConnect=0;fillColor=#CCCCCC;strokeColor=#6881B3;gradientColor=none;gradientDirection=north;strokeWidth=2;shape=mxgraph.networks.mobile;" parent="1" vertex="1">
          <mxGeometry x="558" y="288" width="1359" height="2655" as="geometry" />
        </mxCell>
        <mxCell id="kkA5DNoGoVREOgx9TlIq-5" value="" style="fontColor=#0066CC;verticalAlign=top;verticalLabelPosition=bottom;labelPosition=center;align=center;html=1;outlineConnect=0;fillColor=#CCCCCC;strokeColor=#6881B3;gradientColor=none;gradientDirection=north;strokeWidth=2;shape=mxgraph.networks.patch_panel;labelBackgroundColor=#ffffff;" parent="1" vertex="1">
          <mxGeometry x="1035" y="1143" width="423" height="333" as="geometry" />
        </mxCell>
        <mxCell id="kkA5DNoGoVREOgx9TlIq-6" value="动态服务&lt;br&gt;GeoTools" style="text;html=1;strokeColor=none;fillColor=none;align=center;verticalAlign=middle;whiteSpace=wrap;rounded=0;fontSize=120;labelBackgroundColor=#ffffff;" parent="1" vertex="1">
          <mxGeometry x="913.5" y="1620" width="666" height="324" as="geometry" />
        </mxCell>
        <mxCell id="kkA5DNoGoVREOgx9TlIq-8" value="" style="fontColor=#0066CC;verticalAlign=top;verticalLabelPosition=bottom;labelPosition=center;align=center;html=1;outlineConnect=0;fillColor=#CCCCCC;strokeColor=#6881B3;gradientColor=none;gradientDirection=north;strokeWidth=2;shape=mxgraph.networks.mobile;labelBackgroundColor=#ffffff;" parent="1" vertex="1">
          <mxGeometry x="3366" y="1296" width="414" height="648" as="geometry" />
        </mxCell>
        <mxCell id="kkA5DNoGoVREOgx9TlIq-9" value="" style="fontColor=#0066CC;verticalAlign=top;verticalLabelPosition=bottom;labelPosition=center;align=center;html=1;outlineConnect=0;fillColor=#CCCCCC;strokeColor=#6881B3;gradientColor=none;gradientDirection=north;strokeWidth=2;shape=mxgraph.networks.pc;labelBackgroundColor=#ffffff;" parent="1" vertex="1">
          <mxGeometry x="3222" y="2358" width="702" height="567" as="geometry" />
        </mxCell>
        <mxCell id="kkA5DNoGoVREOgx9TlIq-10" value="" style="edgeStyle=elbowEdgeStyle;elbow=horizontal;endArrow=classic;html=1;fontSize=120;" parent="1" edge="1">
          <mxGeometry width="50" height="50" relative="1" as="geometry">
            <mxPoint x="1422" y="1022" as="sourcePoint" />
            <mxPoint x="1472" y="972" as="targetPoint" />
          </mxGeometry>
        </mxCell>
        <mxCell id="kkA5DNoGoVREOgx9TlIq-12" value="" style="edgeStyle=elbowEdgeStyle;elbow=horizontal;endArrow=classic;html=1;fontSize=120;" parent="1" edge="1">
          <mxGeometry width="50" height="50" relative="1" as="geometry">
            <mxPoint x="1422" y="1022" as="sourcePoint" />
            <mxPoint x="1472" y="972" as="targetPoint" />
          </mxGeometry>
        </mxCell>
        <mxCell id="kkA5DNoGoVREOgx9TlIq-14" value="" style="edgeStyle=elbowEdgeStyle;elbow=horizontal;endArrow=classic;html=1;fontSize=120;" parent="1" edge="1">
          <mxGeometry width="50" height="50" relative="1" as="geometry">
            <mxPoint x="1422" y="1022" as="sourcePoint" />
            <mxPoint x="1472" y="972" as="targetPoint" />
          </mxGeometry>
        </mxCell>
        <mxCell id="kkA5DNoGoVREOgx9TlIq-16" value="" style="fontColor=#0066CC;verticalAlign=top;verticalLabelPosition=bottom;labelPosition=center;align=center;html=1;outlineConnect=0;fillColor=#CCCCCC;strokeColor=#6881B3;gradientColor=none;gradientDirection=north;strokeWidth=2;shape=mxgraph.networks.tablet;labelBackgroundColor=#ffffff;" parent="1" vertex="1">
          <mxGeometry x="3222" y="342" width="819" height="477" as="geometry" />
        </mxCell>
        <mxCell id="uPeLWIl1Rv82UvaEAmeJ-1" value="geojson" style="text;html=1;strokeColor=none;fillColor=none;align=center;verticalAlign=middle;whiteSpace=wrap;rounded=0;fontSize=120;labelBackgroundColor=#ffffff;" vertex="1" parent="1">
          <mxGeometry x="1908" y="1341" width="666" height="324" as="geometry" />
        </mxCell>
        <mxCell id="uPeLWIl1Rv82UvaEAmeJ-2" value="turf.js" style="text;html=1;strokeColor=none;fillColor=none;align=center;verticalAlign=middle;whiteSpace=wrap;rounded=0;fontSize=120;labelBackgroundColor=#ffffff;" vertex="1" parent="1">
          <mxGeometry x="3298.5" y="418.5" width="666" height="324" as="geometry" />
        </mxCell>
        <mxCell id="uPeLWIl1Rv82UvaEAmeJ-3" value="turf.js" style="text;html=1;strokeColor=none;fillColor=none;align=center;verticalAlign=middle;whiteSpace=wrap;rounded=0;fontSize=120;labelBackgroundColor=#ffffff;" vertex="1" parent="1">
          <mxGeometry x="3231" y="1453.5" width="666" height="324" as="geometry" />
        </mxCell>
        <mxCell id="uPeLWIl1Rv82UvaEAmeJ-4" value="turf.js" style="text;html=1;strokeColor=none;fillColor=none;align=center;verticalAlign=middle;whiteSpace=wrap;rounded=0;fontSize=120;labelBackgroundColor=#ffffff;" vertex="1" parent="1">
          <mxGeometry x="3330" y="2430" width="666" height="324" as="geometry" />
        </mxCell>
      </root>
    </mxGraphModel>
  </diagram>
</mxfile>
